<mxfile host="app.diagrams.net" agent="Mozilla/5.0 (Windows NT 10.0; Win64; x64) AppleWebKit/537.36 (KHTML, like Gecko) Chrome/128.0.0.0 Safari/537.36 Edg/128.0.0.0" version="24.7.8">
  <diagram id="R2lEEEUBdFMjLlhIrx00" name="Page-1">
    <mxGraphModel dx="872" dy="479" grid="1" gridSize="10" guides="1" tooltips="1" connect="1" arrows="1" fold="1" page="1" pageScale="1" pageWidth="850" pageHeight="1100" math="0" shadow="0" extFonts="Permanent Marker^https://fonts.googleapis.com/css?family=Permanent+Marker">
      <root>
        <mxCell id="0" />
        <mxCell id="1" parent="0" />
        <mxCell id="7q-8BF5EWjgshKCfqniK-1" value="СОЗДАТЕЛЬ" style="whiteSpace=wrap;html=1;align=center;" vertex="1" parent="1">
          <mxGeometry x="280" y="320" width="100" height="40" as="geometry" />
        </mxCell>
        <mxCell id="7q-8BF5EWjgshKCfqniK-2" value="КНИГА" style="whiteSpace=wrap;html=1;align=center;strokeColor=default;" vertex="1" parent="1">
          <mxGeometry x="80" y="320" width="100" height="40" as="geometry" />
        </mxCell>
        <mxCell id="7q-8BF5EWjgshKCfqniK-5" value="" style="edgeStyle=entityRelationEdgeStyle;fontSize=12;html=1;endArrow=ERmany;startArrow=ERmany;rounded=0;exitX=1;exitY=0.5;exitDx=0;exitDy=0;entryX=0;entryY=0.5;entryDx=0;entryDy=0;" edge="1" parent="1" source="7q-8BF5EWjgshKCfqniK-2" target="7q-8BF5EWjgshKCfqniK-1">
          <mxGeometry width="100" height="100" relative="1" as="geometry">
            <mxPoint x="170" y="430" as="sourcePoint" />
            <mxPoint x="270" y="330" as="targetPoint" />
          </mxGeometry>
        </mxCell>
        <mxCell id="7q-8BF5EWjgshKCfqniK-6" value="РОЛЬ СОЗДАТЕЛЯ" style="whiteSpace=wrap;html=1;align=center;" vertex="1" parent="1">
          <mxGeometry x="480" y="320" width="100" height="40" as="geometry" />
        </mxCell>
        <mxCell id="7q-8BF5EWjgshKCfqniK-7" value="" style="edgeStyle=entityRelationEdgeStyle;fontSize=12;html=1;endArrow=ERmany;startArrow=ERmany;rounded=0;exitX=1;exitY=0.5;exitDx=0;exitDy=0;entryX=0;entryY=0.5;entryDx=0;entryDy=0;" edge="1" parent="1" source="7q-8BF5EWjgshKCfqniK-2" target="7q-8BF5EWjgshKCfqniK-1">
          <mxGeometry width="100" height="100" relative="1" as="geometry">
            <mxPoint x="180" y="340" as="sourcePoint" />
            <mxPoint x="280" y="340" as="targetPoint" />
            <Array as="points">
              <mxPoint x="420" y="310" />
            </Array>
          </mxGeometry>
        </mxCell>
        <mxCell id="7q-8BF5EWjgshKCfqniK-8" value="" style="edgeStyle=entityRelationEdgeStyle;fontSize=12;html=1;endArrow=ERmany;startArrow=ERmany;rounded=0;exitX=1;exitY=0.5;exitDx=0;exitDy=0;" edge="1" parent="1" source="7q-8BF5EWjgshKCfqniK-1">
          <mxGeometry width="100" height="100" relative="1" as="geometry">
            <mxPoint x="380" y="440" as="sourcePoint" />
            <mxPoint x="480" y="340" as="targetPoint" />
          </mxGeometry>
        </mxCell>
      </root>
    </mxGraphModel>
  </diagram>
</mxfile>
